<svg width="126" height="62" viewBox="0 0 126 62" fill="none" xmlns="http://www.w3.org/2000/svg">
<path d="M56.45 35.55V19.5L29.45 3L2 19.5V60H56.45V51.75" stroke="white" stroke-width="4"/>
<rect x="24.5" y="18.6001" width="4.30345" height="4.30345" fill="white"/>
<rect x="29.7966" y="18.6001" width="4.30345" height="4.30345" fill="white"/>
<rect x="24.5" y="23.8965" width="4.30345" height="4.30345" fill="white"/>
<rect x="29.7966" y="23.8965" width="4.30345" height="4.30345" fill="white"/>
<path d="M29.261 48V38.9H37.347V48H35.618V39.953L36.021 40.369H30.587L30.99 39.953V48H29.261ZM44.1123 48.13C43.4016 48.13 42.7429 48.013 42.1363 47.779C41.5383 47.545 41.0183 47.22 40.5763 46.804C40.1429 46.3793 39.8006 45.8853 39.5493 45.322C39.3066 44.75 39.1853 44.126 39.1853 43.45C39.1853 42.774 39.3066 42.1543 39.5493 41.591C39.8006 41.019 40.1473 40.525 40.5893 40.109C41.0313 39.6843 41.5513 39.355 42.1493 39.121C42.7473 38.887 43.4016 38.77 44.1123 38.77C44.8143 38.77 45.4643 38.887 46.0623 39.121C46.6603 39.3463 47.1803 39.6713 47.6223 40.096C48.0643 40.512 48.4066 41.006 48.6493 41.578C48.8919 42.15 49.0133 42.774 49.0133 43.45C49.0133 44.126 48.8919 44.75 48.6493 45.322C48.4066 45.894 48.0643 46.3923 47.6223 46.817C47.1803 47.233 46.6603 47.558 46.0623 47.792C45.4643 48.0173 44.8143 48.13 44.1123 48.13ZM44.1123 46.609C44.5629 46.609 44.9746 46.531 45.3473 46.375C45.7286 46.219 46.0623 46.0023 46.3483 45.725C46.6343 45.439 46.8553 45.1053 47.0113 44.724C47.1673 44.334 47.2453 43.9093 47.2453 43.45C47.2453 42.9907 47.1673 42.5703 47.0113 42.189C46.8553 41.8077 46.6343 41.474 46.3483 41.188C46.0623 40.902 45.7286 40.681 45.3473 40.525C44.9746 40.369 44.5629 40.291 44.1123 40.291C43.6529 40.291 43.2326 40.369 42.8513 40.525C42.4699 40.681 42.1363 40.902 41.8503 41.188C41.5729 41.474 41.3519 41.8077 41.1873 42.189C41.0313 42.5703 40.9533 42.9907 40.9533 43.45C40.9533 43.9093 41.0313 44.3297 41.1873 44.711C41.3519 45.0923 41.5729 45.426 41.8503 45.712C42.1363 45.998 42.4699 46.219 42.8513 46.375C43.2326 46.531 43.6529 46.609 44.1123 46.609ZM50.4591 48.13C50.3118 48.13 50.1601 48.117 50.0041 48.091C49.8568 48.0737 49.6921 48.0433 49.5101 48L49.6271 46.479C49.7571 46.5137 49.8871 46.531 50.0171 46.531C50.3811 46.531 50.6671 46.3837 50.8751 46.089C51.0918 45.7943 51.2478 45.361 51.3431 44.789C51.4385 44.2083 51.5035 43.4977 51.5381 42.657L51.6681 38.9H58.4151V48H56.6731V39.953L57.0761 40.369H52.8121L53.1761 39.927L53.0851 42.592C53.0591 43.4847 52.9985 44.2777 52.9031 44.971C52.8078 45.6557 52.6605 46.232 52.4611 46.7C52.2705 47.168 52.0105 47.5233 51.6811 47.766C51.3605 48.0087 50.9531 48.13 50.4591 48.13ZM65.1481 41.968C66.2314 41.968 67.0678 42.2107 67.6571 42.696C68.2551 43.1813 68.5541 43.9093 68.5541 44.88C68.5541 45.9027 68.2291 46.6783 67.5791 47.207C66.9291 47.7357 66.0278 48 64.8751 48H60.9231V38.9H62.6521V41.968H65.1481ZM64.7841 46.661C65.4168 46.661 65.9064 46.5137 66.2531 46.219C66.6084 45.9157 66.7861 45.478 66.7861 44.906C66.7861 44.3513 66.6128 43.9483 66.2661 43.697C65.9194 43.437 65.4254 43.307 64.7841 43.307H62.6521V46.661H64.7841ZM69.1033 47.116L69.6623 45.842C70.0609 46.102 70.4899 46.3013 70.9493 46.44C71.4086 46.5787 71.8636 46.6567 72.3143 46.674C72.7649 46.6827 73.1766 46.6307 73.5493 46.518C73.9219 46.4053 74.2209 46.2407 74.4463 46.024C74.6716 45.7987 74.7843 45.5213 74.7843 45.192C74.7843 44.802 74.6196 44.5073 74.2903 44.308C73.9696 44.1087 73.5319 44.009 72.9773 44.009H70.8323V42.631H72.8473C73.3413 42.631 73.7226 42.5313 73.9913 42.332C74.2686 42.1327 74.4073 41.8553 74.4073 41.5C74.4073 41.2227 74.3163 40.993 74.1343 40.811C73.9523 40.6203 73.7009 40.4773 73.3803 40.382C73.0683 40.2867 72.7173 40.2433 72.3273 40.252C71.9373 40.2607 71.5343 40.3213 71.1183 40.434C70.7023 40.5467 70.2993 40.7113 69.9093 40.928L69.3633 39.537C69.9439 39.225 70.5506 39.0127 71.1833 38.9C71.8159 38.7787 72.4269 38.744 73.0163 38.796C73.6056 38.848 74.1386 38.9823 74.6153 39.199C75.0919 39.4157 75.4733 39.7017 75.7593 40.057C76.0453 40.4037 76.1883 40.8153 76.1883 41.292C76.1883 41.7253 76.0756 42.111 75.8503 42.449C75.6249 42.787 75.3129 43.047 74.9143 43.229C74.5156 43.411 74.0519 43.502 73.5233 43.502L73.5753 43.073C74.1819 43.073 74.7063 43.1727 75.1483 43.372C75.5989 43.5713 75.9456 43.853 76.1883 44.217C76.4396 44.5723 76.5653 44.984 76.5653 45.452C76.5653 45.894 76.4526 46.2883 76.2273 46.635C76.0019 46.973 75.6899 47.259 75.2913 47.493C74.9013 47.7183 74.4549 47.8873 73.9523 48C73.4496 48.1127 72.9166 48.156 72.3533 48.13C71.7986 48.104 71.2439 48.0087 70.6893 47.844C70.1346 47.6793 69.6059 47.4367 69.1033 47.116ZM77.3113 48L81.4063 38.9H83.1353L87.2303 48H85.3973L81.9133 39.823H82.6023L79.1183 48H77.3113ZM79.2223 45.92L79.6903 44.542H84.5653L85.0463 45.92H79.2223Z" fill="#3DAD4F"/>
<path d="M98.2364 47.194V40.369H94.7394L94.6874 41.942C94.6614 42.54 94.6224 43.1077 94.5704 43.645C94.5184 44.1823 94.4447 44.672 94.3494 45.114C94.254 45.5473 94.1197 45.9113 93.9464 46.206C93.7817 46.492 93.5737 46.687 93.3224 46.791L91.4374 46.531C91.7667 46.5397 92.0354 46.427 92.2434 46.193C92.46 45.9503 92.6247 45.6167 92.7374 45.192C92.8587 44.7587 92.9497 44.2517 93.0104 43.671C93.071 43.0903 93.1144 42.4577 93.1404 41.773L93.2444 38.9H99.9784V47.194H98.2364ZM91.1384 49.937V46.531H101.278V49.937H99.6534V48H92.7634L92.7504 49.937H91.1384ZM107.081 48.13C106.37 48.13 105.712 48.013 105.105 47.779C104.507 47.545 103.987 47.22 103.545 46.804C103.112 46.3793 102.769 45.8853 102.518 45.322C102.275 44.75 102.154 44.126 102.154 43.45C102.154 42.774 102.275 42.1543 102.518 41.591C102.769 41.019 103.116 40.525 103.558 40.109C104 39.6843 104.52 39.355 105.118 39.121C105.716 38.887 106.37 38.77 107.081 38.77C107.783 38.77 108.433 38.887 109.031 39.121C109.629 39.3463 110.149 39.6713 110.591 40.096C111.033 40.512 111.375 41.006 111.618 41.578C111.861 42.15 111.982 42.774 111.982 43.45C111.982 44.126 111.861 44.75 111.618 45.322C111.375 45.894 111.033 46.3923 110.591 46.817C110.149 47.233 109.629 47.558 109.031 47.792C108.433 48.0173 107.783 48.13 107.081 48.13ZM107.081 46.609C107.532 46.609 107.943 46.531 108.316 46.375C108.697 46.219 109.031 46.0023 109.317 45.725C109.603 45.439 109.824 45.1053 109.98 44.724C110.136 44.334 110.214 43.9093 110.214 43.45C110.214 42.9907 110.136 42.5703 109.98 42.189C109.824 41.8077 109.603 41.474 109.317 41.188C109.031 40.902 108.697 40.681 108.316 40.525C107.943 40.369 107.532 40.291 107.081 40.291C106.622 40.291 106.201 40.369 105.82 40.525C105.439 40.681 105.105 40.902 104.819 41.188C104.542 41.474 104.321 41.8077 104.156 42.189C104 42.5703 103.922 42.9907 103.922 43.45C103.922 43.9093 104 44.3297 104.156 44.711C104.321 45.0923 104.542 45.426 104.819 45.712C105.105 45.998 105.439 46.219 105.82 46.375C106.201 46.531 106.622 46.609 107.081 46.609ZM113.812 48V38.9H115.255L119.22 45.504H118.453L122.353 38.9H123.796L123.809 48H122.145L122.132 41.5H122.483L119.194 46.973H118.414L115.073 41.5H115.476V48H113.812Z" fill="white"/>
</svg>
